Coordinates
version=1
nRows=7
nColumns=33
inDegrees=yes

Units are S.I. units (second, meters, Newtons, ...)
Angles are in degrees.

endheader
time	ground_thorax_rot_x	ground_thorax_rot_y	ground_thorax_rot_z	ground_thorax_tx	ground_thorax_ty	ground_thorax_tz	clav_prot_r	clav_elev_r	scapula_abduction_r	scapula_elevation_r	scapula_upward_rot_r	scapula_winging_r	shoulder_elv_r	plane_of_elev_r	axial_rot_r	elbow_flexion_r	pro_sup_r	wrist_flex_r	wrist_dev_r	clav_prot_l	clav_elev_l	scapula_abduction_l	scapula_elevation_l	scapula_upward_rot_l	scapula_winging_l	shoulder_elv_l	plane_of_elev_l	axial_rot_l	elbow_flexion_l	pro_sup_l	wrist_flex_l	wrist_dev_l
      6.42000000	     31.17502433	     25.10320954	     35.42369220	    -87.84320943	    851.12916887	    -42.62474322	     11.94024872	     33.63078644	     26.29801936	     45.00000000	    -45.00000000	   1712.33345805	   1514.40391360	     24.05311755	    179.99999979	   2882.77839306	    176.64128056	     17.89257910	     14.36907352	     -7.74497450	    -45.00000000	    -40.57860103	     45.00000000	    -27.59777642	   2988.45786869	  -4412.12980886	    142.42834459	    179.99999979	   2158.40052844	   -320.32164929	     12.83988292	    -24.99999983
      6.43000000	     31.09656216	     25.23354657	     35.70132606	    -85.90889761	    850.82612617	    -42.68991912	     11.93970859	     33.63930562	     26.42187325	     45.00000000	    -45.00000000	   1712.38902632	   1514.34397007	     24.04917907	    179.99999979	   2882.66713172	    176.17752313	     17.79856000	     14.42458504	     -7.69304558	    -45.00000000	    -40.72178971	     45.00000000	    -27.25672489	   2988.48876553	  -4412.19682358	    142.40734855	    179.99999979	   2158.51232354	   -320.22691434	     12.95432126	    -24.99999983
      6.44000000	     31.06138505	     25.33303589	     35.95480118	    -83.92161248	    850.48759186	    -42.75061128	     11.96586021	     33.66465409	     26.60394253	     45.00000000	    -45.00000000	   1712.42771639	   1514.27619936	     24.04947724	    179.99999979	   2882.55086908	    175.69946036	     17.69501520	     14.48040804	     -7.74260983	    -45.00000000	    -40.73729388	     45.00000000	    -26.96522489	   2988.41670563	  -4412.24798945	    142.43112517	    179.99999979	   2158.63690726	   -320.11126639	     13.07383540	    -24.99999983
      6.45000000	     31.01077873	     25.45280218	     36.22500506	    -81.88329394	    850.10983727	    -42.80419713	     12.00085833	     33.68391690	     26.76302646	     45.00000000	    -45.00000000	   1712.47523174	   1514.20930325	     24.04904271	    179.99999979	   2882.43661458	    175.21247288	     17.57632430	     14.54653472	     -7.76652225	    -45.00000000	    -40.78691396	     45.00000000	    -26.67751887	   2988.38689036	  -4412.31886222	    142.41583153	    179.99999979	   2158.74413210	   -319.97324204	     13.19397814	    -24.99999983
      6.46000000	     30.96628862	     25.60558124	     36.48318703	    -79.79600534	    849.68883750	    -42.84826050	     12.02818423	     33.70598443	     26.89615535	     45.00000000	    -45.00000000	   1712.51584091	   1514.15144786	     24.04617676	    179.99999979	   2882.32618910	    174.71362909	     17.44152247	     14.61471356	     -7.78994153	    -45.00000000	    -40.81593895	     45.00000000	    -26.36506225	   2988.32933993	  -4412.40177119	    142.38996770	    179.99999979	   2158.83793748	   -319.81426872	     13.32088004	    -24.99999983
      6.47000000	     30.82465468	     25.75600530	     36.87918269	    -77.66344130	    849.22083232	    -42.88111588	     12.02955789	     33.70144919	     26.98469998	     45.00000000	    -45.00000000	   1712.63829960	   1514.09754906	     24.03602774	    179.99999979	   2882.21178394	    174.21965766	     17.28408803	     14.68642464	     -7.81665251	    -45.00000000	    -40.84625024	     45.00000000	    -26.13460173	   2988.28810019	  -4412.37860504	    142.43925562	    179.99999979	   2158.99939959	   -319.66121006	     13.43486335	    -24.99999983
      6.48000000	     30.92948797	     25.83472549	     36.96659467	    -75.48532285	    848.70133521	    -42.90202370	     12.12298407	     33.78820410	     27.22096635	     45.00000000	    -45.00000000	   1712.59007386	   1513.99094939	     24.12340989	    179.99999979	   2882.06291227	    173.67809761	     17.14190917	     14.77385507	     -7.86775588	    -45.00000000	    -40.87587780	     45.00000000	    -25.77476613	   2988.28369092	  -4412.62406258	    142.31831120	    179.99999979	   2158.88519974	   -319.42881945	     13.58863524	    -24.99999983
